<svg width="35" height="43" viewBox="0 0 35 43" fill="none" xmlns="http://www.w3.org/2000/svg">
<circle cx="24.2493" cy="32.1261" r="9.16505" stroke="#29373E" stroke-opacity="0.8" stroke-width="2.29126"/>
<ellipse cx="11.768" cy="17.4137" rx="9.76801" ry="3.256" stroke="#29373E" stroke-opacity="0.8" stroke-width="2.29126"/>
<path d="M11.768 26.1566C10.4852 26.1566 9.21503 26.0724 8.02992 25.9088C6.84481 25.7452 5.768 25.5053 4.86095 25.203C3.95391 24.9006 3.2344 24.5417 2.74351 24.1467C2.25263 23.7516 1.99997 23.3282 1.99997 22.9006" stroke="#29373E" stroke-opacity="0.8" stroke-width="2.29126" stroke-linecap="round"/>
<path d="M11.768 31.5834C10.4852 31.5834 9.21503 31.4992 8.02992 31.3355C6.84481 31.1719 5.768 30.9321 4.86095 30.6297C3.95391 30.3274 3.2344 29.9684 2.74351 29.5734C2.25263 29.1784 1.99997 28.755 1.99997 28.3274" stroke="#29373E" stroke-opacity="0.8" stroke-width="2.29126" stroke-linecap="round"/>
<path d="M11.768 37.0102C10.4852 37.0102 9.21503 36.9259 8.02992 36.7623C6.84481 36.5987 5.768 36.3588 4.86095 36.0565C3.95391 35.7541 3.2344 35.3952 2.74351 35.0002C2.25263 34.6051 1.99997 34.1817 1.99997 33.7542" stroke="#29373E" stroke-opacity="0.8" stroke-width="2.29126" stroke-linecap="round"/>
<line x1="1.14563" y1="-1.14563" x2="11.9235" y2="-1.14563" transform="matrix(0.707105 -0.707108 0.707105 0.707108 25.0554 11.2415)" stroke="#29373E" stroke-opacity="0.8" stroke-width="2.29126" stroke-linecap="round"/>
<line x1="1.14563" y1="-1.14563" x2="5.75969" y2="-1.14563" transform="matrix(0.939692 -0.342021 0.34202 0.939693 26.9742 16.5476)" stroke="#29373E" stroke-opacity="0.8" stroke-width="2.29126" stroke-linecap="round"/>
<line x1="1.14563" y1="-1.14563" x2="6.65429" y2="-1.14563" transform="matrix(0.383185 -0.923672 0.923675 0.383176 19.6325 8.39868)" stroke="#29373E" stroke-opacity="0.8" stroke-width="2.29126" stroke-linecap="round"/>
</svg>
